# xmcd
#
# Track frame offsets: 
#        150
#        13470
#        27609
#        42016
#        57328
#        74111
#        90236
#        104463
#        119536
#        135877
#        151262
#        166346
#        180653
#
# Disc length: 2555 seconds
#
# Revision: 0
# Processed by: cddbd v1.5.2PL0 Copyright (c) Steve Scherf et al.
# Submitted via: ExactAudioCopy v1.3
#
DISCID=ae09f90d
DTITLE=George Strait - Twang
DYEAR=2009
DGENRE=Country
TTITLE0=Twang
TTITLE1=Where Have I Been All My Life
TTITLE2=I Gotta Get to You
TTITLE3=Easy As You Go
TTITLE4=Living For The Night
TTITLE5=Same Kind of Crazy
TTITLE6=Out of Sight Out of Mind
TTITLE7=Arkansas Dave
TTITLE8=The Breath You Take
TTITLE9=He's Got That Something Special
TTITLE10=Hot Grease And Zydeco
TTITLE11=Beautiful Day For Goodbye
TTITLE12=El Rey
EXTD=
EXTT0=
EXTT1=
EXTT2=
EXTT3=
EXTT4=
EXTT5=
EXTT6=
EXTT7=
EXTT8=
EXTT9=
EXTT10=
EXTT11=
EXTT12=
PLAYORDER=
